<svg aria-hidden="true" style="position: absolute; width: 0; height: 0; overflow: hidden;" version="1.1" xmlns="http://www.w3.org/2000/svg" xmlns:xlink="http://www.w3.org/1999/xlink">
<defs>
<symbol id="close" viewBox="0 0 32 32">
<path d="M17.88 16l5.733-5.72c0.242-0.242 0.392-0.577 0.392-0.947 0-0.739-0.599-1.339-1.339-1.339-0.37 0-0.704 0.15-0.947 0.392v0l-5.72 5.733-5.72-5.733c-0.242-0.242-0.577-0.392-0.947-0.392-0.739 0-1.339 0.599-1.339 1.339 0 0.37 0.15 0.704 0.392 0.947v0l5.733 5.72-5.733 5.72c-0.244 0.242-0.394 0.577-0.394 0.947s0.151 0.705 0.394 0.947l0 0c0.242 0.244 0.577 0.394 0.947 0.394s0.705-0.151 0.947-0.394l0-0 5.72-5.733 5.72 5.733c0.242 0.244 0.577 0.394 0.947 0.394s0.705-0.151 0.947-0.394l0-0c0.244-0.242 0.394-0.577 0.394-0.947s-0.151-0.705-0.394-0.947l-0-0z"></path>
</symbol>
<symbol id="icon-heart-1" viewBox="0 0 14 13">
<path d="M7 12.88L6.02 11.9C2.38 8.68 0 6.51 0 3.85C0 1.68 1.68 0 3.85 0C5.04 0 6.23 0.56 7 1.47C7.77 0.56 8.96 0 10.15 0C12.32 0 14 1.68 14 3.85C14 6.51 11.62 8.68 7.98 11.9L7 12.88Z"></path>
</symbol>
<symbol id="app-store" viewBox="0 0 32 32">
<path d="M23.667 4c2.393 0 4.333 1.94 4.333 4.333v0 15.333c0 2.393-1.94 4.333-4.333 4.333v0h-15.333c-2.393 0-4.333-1.94-4.333-4.333v0-15.333c0-2.393 1.94-4.333 4.333-4.333v0h15.333zM12.492 20.339h-2.319l-0.089 0.155-0.060 0.121c-0.048 0.113-0.076 0.245-0.076 0.383 0 0.552 0.448 1 1 1 0.318 0 0.602-0.149 0.785-0.381l0.002-0.002 0.076-0.113 0.68-1.163zM17.724 13.365l-1.161 1.989 3.544 6.144 0.075 0.113c0.185 0.239 0.471 0.391 0.793 0.391 0.552 0 1-0.448 1-1 0-0.138-0.028-0.269-0.078-0.388l0.002 0.007-0.060-0.123-0.669-1.16h1.167l0.136-0.008c0.444-0.063 0.792-0.41 0.854-0.849l0.001-0.005 0.009-0.136-0.009-0.136c-0.063-0.444-0.41-0.792-0.849-0.854l-0.005-0.001-0.136-0.009h-2.32l-2.293-3.973zM17.684 9.468c-0.145-0.086-0.319-0.137-0.505-0.137-0.319 0-0.603 0.149-0.786 0.381l-0.002 0.002-0.076 0.113-0.32 0.545-0.312-0.541-0.075-0.112c-0.185-0.237-0.47-0.389-0.791-0.389-0.131 0-0.256 0.025-0.371 0.071l0.007-0.002-0.135 0.067-0.113 0.075c-0.237 0.185-0.388 0.47-0.388 0.791 0 0.132 0.025 0.257 0.072 0.372l-0.002-0.007 0.067 0.133 0.883 1.531-2.908 4.979h-2.259l-0.136 0.009c-0.491 0.069-0.864 0.486-0.864 0.991s0.373 0.921 0.858 0.99l0.005 0.001 0.136 0.009h8.036l-1.153-2-2.308-0.001 3.8-6.503 0.060-0.12c0.048-0.113 0.077-0.245 0.077-0.384 0-0.367-0.198-0.688-0.492-0.862l-0.005-0.003z"></path>
</symbol>
<symbol id="facebook" viewBox="0 0 32 32">
<path d="M32 16.097c0-8.836-7.164-16-16-16s-16 7.164-16 16c0 7.987 5.851 14.605 13.5 15.805v-11.18h-4.063v-4.627h4.063v-3.523c0-4.009 2.389-6.225 6.044-6.225 1.749 0 3.581 0.313 3.581 0.313v3.937h-2.019c-1.988 0-2.608 1.233-2.608 2.499v3h4.437l-0.709 4.627h-3.728v11.18c7.651-1.201 13.501-7.821 13.501-15.807z"></path>
</symbol>
<symbol id="google-play" viewBox="0 0 32 32">
<path d="M17 14.5l4.2-4.5-16.3-8.8c-0.1-0.1-0.3-0.1-0.6-0.2l12.7 13.5zM23 21l5.9-3.2c0.7-0.4 1.1-1 1.1-1.8s-0.4-1.5-1.1-1.8l-5.9-3.2-4.7 5 4.7 5zM2.4 1.9c-0.3 0.3-0.4 0.7-0.4 1.1v26c0 0.4 0.1 0.8 0.4 1.2l13.2-14.2-13.2-14.1zM17 17.5l-12.7 13.5c0.2 0 0.4-0.1 0.6-0.2l16.3-8.8-4.2-4.5z"></path>
</symbol>
<symbol id="instagram" viewBox="0 0 32 32"><path d="M31.969 9.408c-.075-1.7-.35-2.869-.744-3.882a7.806 7.806 0 0 0-1.851-2.838A7.867 7.867 0 0 0 26.542.844C25.523.45 24.36.175 22.66.1 20.947.019 20.403 0 16.059 0s-4.888.019-6.595.094c-1.7.075-2.869.35-3.882.744a7.803 7.803 0 0 0-2.838 1.85A7.867 7.867 0 0 0 .9 5.52C.506 6.539.231 7.702.156 9.402c-.081 1.713-.1 2.257-.1 6.601s.019 4.888.094 6.595c.075 1.7.35 2.869.744 3.882a7.895 7.895 0 0 0 1.85 2.838 7.867 7.867 0 0 0 2.832 1.844c1.019.394 2.182.669 3.882.744 1.706.075 2.25.094 6.595.094s4.888-.019 6.595-.094c1.7-.075 2.869-.35 3.882-.744a8.184 8.184 0 0 0 4.682-4.682c.394-1.019.669-2.182.744-3.882.075-1.707.094-2.251.094-6.595s-.006-4.888-.081-6.595zm-2.882 13.065c-.069 1.563-.331 2.407-.55 2.969a5.31 5.31 0 0 1-3.038 3.038c-.563.219-1.413.481-2.969.55-1.688.075-2.194.094-6.464.094s-4.782-.019-6.464-.094c-1.563-.069-2.407-.331-2.969-.55a4.926 4.926 0 0 1-1.838-1.194 4.974 4.974 0 0 1-1.194-1.838c-.219-.563-.481-1.413-.55-2.969-.075-1.688-.094-2.194-.094-6.464s.019-4.782.094-6.464c.069-1.563.331-2.407.55-2.969a4.868 4.868 0 0 1 1.2-1.838A4.974 4.974 0 0 1 6.639 3.55c.563-.219 1.413-.481 2.969-.55 1.688-.075 2.194-.094 6.464-.094 4.276 0 4.782.019 6.464.094 1.563.069 2.407.331 2.969.55a4.914 4.914 0 0 1 1.838 1.194 4.974 4.974 0 0 1 1.194 1.838c.219.563.481 1.413.55 2.969.075 1.688.094 2.194.094 6.464s-.019 4.77-.094 6.458z"/><path d="M16.059 7.783c-4.538 0-8.22 3.682-8.22 8.22s3.682 8.22 8.22 8.22c4.539 0 8.22-3.682 8.22-8.22s-3.682-8.22-8.22-8.22zm0 13.552a5.333 5.333 0 0 1 0-10.664 5.333 5.333 0 0 1 0 10.664zM26.524 7.458a1.919 1.919 0 1 1-3.838 0 1.919 1.919 0 0 1 3.838 0z"/></symbol>

<symbol id="twitter" viewBox="0 0 32 32">
<path d="M31.275 5.924c-0.419 0.193-0.933 0.385-1.462 0.542l-0.086 0.022c0.608-0.685 1.084-1.502 1.379-2.401l0.014-0.048c0.016-0.047 0.025-0.101 0.025-0.157 0-0.285-0.231-0.516-0.516-0.516-0.097 0-0.188 0.027-0.266 0.074l0.002-0.001c-1.037 0.627-2.239 1.118-3.519 1.407l-0.082 0.016c-1.278-1.249-3.014-1.96-4.808-1.96-3.788 0-6.87 3.082-6.87 6.869 0 0.298 0.019 0.595 0.056 0.888-4.7-0.413-9.070-2.723-12.071-6.404-0.095-0.116-0.239-0.19-0.4-0.19-0.189 0-0.355 0.102-0.445 0.254l-0.001 0.002c-0.609 1.044-0.93 2.239-0.93 3.454 0 1.655 0.591 3.226 1.635 4.453-0.357-0.125-0.66-0.263-0.949-0.426l0.029 0.015c-0.072-0.041-0.159-0.065-0.251-0.065-0.281 0-0.509 0.224-0.516 0.504v0.001c-0.001 0.030-0.001 0.061-0.001 0.092 0 2.471 1.33 4.695 3.363 5.907-0.206-0.021-0.385-0.047-0.56-0.082l0.038 0.006c-0.029-0.006-0.063-0.009-0.097-0.009-0.285 0-0.516 0.231-0.516 0.516 0 0.056 0.009 0.111 0.026 0.161l-0.001-0.004c0.753 2.349 2.69 4.078 5.032 4.604-1.943 1.217-4.164 1.854-6.496 1.854-0.001 0-0.001 0-0.002 0-0.512 0-1.017-0.031-1.513-0.091l0.060 0.006c-0.018-0.002-0.039-0.004-0.061-0.004-0.285 0-0.516 0.231-0.516 0.516 0 0.182 0.094 0.341 0.235 0.433l0.002 0.001c2.996 1.921 6.46 2.936 10.018 2.936 6.994 0 11.369-3.298 13.808-6.065 3.041-3.45 4.785-8.016 4.785-12.528 0-0.188-0.003-0.379-0.009-0.569 1.2-0.904 2.233-1.998 3.073-3.255 0.055-0.081 0.087-0.18 0.087-0.287 0-0.285-0.231-0.516-0.516-0.516-0.076 0-0.148 0.016-0.212 0.046l0.003-0.001z"></path>
</symbol>
<symbol id="youtube" viewBox="0 0 32 32">
<path d="M30.753 6.673c-1.155-1.373-3.288-1.933-7.361-1.933h-14.785c-4.166 0-6.335 0.596-7.486 2.058-1.122 1.425-1.122 3.525-1.122 6.432v5.54c0 5.631 1.331 8.49 8.608 8.49h14.785c3.532 0 5.489-0.494 6.755-1.706 1.298-1.243 1.852-3.272 1.852-6.784v-5.54c0-3.065-0.087-5.178-1.247-6.557zM20.544 16.765l-6.714 3.509c-0.139 0.074-0.304 0.118-0.478 0.118-0.57 0-1.032-0.462-1.032-1.032 0 0 0 0 0-0.001v0-6.995c0-0.57 0.462-1.032 1.032-1.032 0.174 0 0.338 0.043 0.481 0.119l-0.006-0.003 6.714 3.486c0.333 0.176 0.557 0.52 0.557 0.916s-0.222 0.739-0.549 0.912l-0.006 0.003z"></path>
</symbol>

</defs>
</svg>
